<svg width="53" height="57" viewBox="0 0 53 57" fill="none" xmlns="http://www.w3.org/2000/svg">
<g clip-path="url(#clip0_704_228)">
<path d="M27.0394 56.7336L33.0788 52H21L27.0394 56.7336Z" fill="url(#paint0_linear_704_228)"/>
<path d="M26.5 53C41.1355 53 53 41.1355 53 26.5C53 11.8645 41.1355 0 26.5 0C11.8645 0 0 11.8645 0 26.5C0 41.1355 11.8645 53 26.5 53Z" fill="url(#paint1_linear_704_228)"/>
<mask id="mask0_704_228" style="mask-type:luminance" maskUnits="userSpaceOnUse" x="15" y="14" width="24" height="24">
<path d="M39 14H15V38H39V14Z" fill="white"/>
</mask>
<g mask="url(#mask0_704_228)">
<path d="M37 26.6667C36.9123 26.6672 36.8253 26.6504 36.7441 26.6172C36.6629 26.584 36.589 26.5351 36.5267 26.4733L27 16.94L17.4734 26.4733C17.3458 26.5826 17.1818 26.6396 17.014 26.6331C16.8462 26.6267 16.687 26.5571 16.5683 26.4384C16.4496 26.3197 16.38 26.1605 16.3735 25.9927C16.3671 25.8249 16.4241 25.6609 16.5334 25.5333L26.5334 15.5333C26.6583 15.4092 26.8272 15.3395 27.0034 15.3395C27.1795 15.3395 27.3484 15.4092 27.4734 15.5333L37.4734 25.5333C37.5651 25.6269 37.6272 25.7455 37.6519 25.8742C37.6767 26.0029 37.6629 26.136 37.6124 26.2569C37.5619 26.3779 37.4769 26.4812 37.368 26.5541C37.2591 26.627 37.1311 26.6661 37 26.6667Z" fill="white"/>
<path d="M27 19.1934L19 27.22V35.3334C19 35.687 19.1405 36.0261 19.3905 36.2762C19.6406 36.5262 19.9797 36.6667 20.3333 36.6667H25V30H29V36.6667H33.6667C34.0203 36.6667 34.3594 36.5262 34.6095 36.2762C34.8595 36.0261 35 35.687 35 35.3334V27.1734L27 19.1934Z" fill="white"/>
</g>
</g>
<defs>
<linearGradient id="paint0_linear_704_228" x1="47.4955" y1="28.7828" x2="23.7037" y2="56.5588" gradientUnits="userSpaceOnUse">
<stop stop-color="#C62A66"/>
<stop offset="1" stop-color="#D53858"/>
</linearGradient>
<linearGradient id="paint1_linear_704_228" x1="48.8158" y1="9.76316" x2="11.1579" y2="46.0263" gradientUnits="userSpaceOnUse">
<stop stop-color="#C62A66"/>
<stop offset="1" stop-color="#D53858"/>
</linearGradient>
<clipPath id="clip0_704_228">
<rect width="53" height="57" fill="white"/>
</clipPath>
</defs>
</svg>
