<svg width="168" height="28" viewBox="0 0 168 28" fill="none" xmlns="http://www.w3.org/2000/svg">
<path d="M110.972 16.5146H110.816C109.527 16.5146 108.483 17.5655 108.483 18.8618C108.483 20.1581 109.527 21.2091 110.816 21.2091H110.972C112.261 21.2091 113.305 20.1581 113.305 18.8618C113.305 17.5655 112.261 16.5146 110.972 16.5146Z" fill="#FFD400" fill-opacity="0.49"/>
<path d="M43.246 0V21.619H39.3692V0H43.246ZM49.0795 6.71215H53.7135L47.8567 13.3195L54.1229 21.619H50.1104L45.603 15.5736L43.246 18.0326V13.3195L49.4958 6.71215H49.0795ZM65.2164 6.71215V7.00043L65.3107 7.88579C64.6477 7.03338 62.789 6.33334 61.3683 6.33334C56.89 6.33334 53.6438 9.34766 53.6438 14.1656C53.6438 18.6047 56.6404 22.0348 61.3683 22.0348C62.9775 22.0348 64.7743 21.4625 65.4336 20.5112L65.3394 21.4625V21.623H69.3755V6.71215H65.2164ZM61.6183 18.2917C59.633 18.2917 57.7743 16.834 57.7743 14.1656C57.7743 11.4971 59.633 10.0765 61.6183 10.0765C63.6978 10.0765 65.4008 11.6289 65.4008 14.1656C65.4008 16.7022 63.6978 18.2917 61.6183 18.2917ZM71.2629 21.623V7.60161C72.9045 6.65039 75.8683 6.30039 77.6938 6.30039C84.0025 6.30039 85.9223 9.47118 85.9551 13.0249C85.9879 16.0392 85.9879 18.6088 85.9551 21.619H81.857C81.8898 18.9217 81.8898 16.3851 81.857 13.6879C81.825 11.2131 80.5966 10.1341 78.1031 10.1341C76.9369 10.1341 75.8027 10.3236 75.3278 10.6118V21.619H71.2588L71.2629 21.623ZM123.081 22.1625C118.098 22.1625 115.073 18.9259 115.073 14.2315C115.073 9.53704 118.131 6.33334 123.081 6.33334C125.475 6.33334 127.78 7.25161 129.168 8.93586L126.675 11.5671C125.667 10.4554 124.563 10.0147 123.081 10.0147C120.968 10.0147 119.138 11.7278 119.138 14.2315C119.138 16.9575 120.841 18.4811 123.081 18.4811C124.407 18.4811 125.917 17.9746 126.736 16.9287L129.102 19.6259C127.714 21.306 125.602 22.1625 123.081 22.1625ZM137.834 6.33744C132.885 6.33744 129.827 9.57409 129.827 14.2315C129.827 18.8888 132.852 22.1625 137.834 22.1625C142.816 22.1625 145.874 18.9259 145.874 14.2315C145.874 9.53704 142.783 6.33744 137.834 6.33744ZM137.834 18.4523C135.722 18.4523 133.83 17.0564 133.83 14.2356C133.83 11.4148 135.844 10.0188 137.834 10.0188C139.823 10.0188 141.837 11.4148 141.837 14.2356C141.837 17.0564 139.979 18.4523 137.834 18.4523ZM21.046 21.6272H16.9769C17.0096 18.9299 17.0096 16.3934 16.9769 13.6961C16.9441 11.2213 16.1869 10.1424 14.7049 10.1424C14.3447 10.1424 14.0704 10.163 13.7511 10.2165C13.5423 10.2494 13.1002 10.3318 12.5599 10.5254C12.4862 10.55 12.4124 10.583 12.3429 10.6077C12.5926 11.4271 12.7113 12.3208 12.7195 13.2514C12.7523 16.2657 12.7523 18.6129 12.7195 21.6272H8.65043C8.68313 18.9299 8.68313 16.3934 8.65043 13.6961C8.61765 11.0318 7.86036 10.1424 6.37845 10.1424C5.46553 10.1424 4.8351 10.303 4.39301 10.5871V21.6272H0.323914V7.60575C1.99413 6.62158 3.41463 6.30449 5.96905 6.30449C7.61475 6.30449 8.90834 6.6751 9.91128 7.30518C10.3943 7.10752 10.9388 6.91395 11.5487 6.74924C12.2569 6.55982 13.2722 6.28801 14.5125 6.30449C15.4418 6.31687 17.6769 6.34982 19.2407 7.8487C20.5834 9.13352 21.0215 11.0936 21.0419 13.2514C21.0746 16.2657 21.0746 18.6129 21.0419 21.6272H21.046ZM167.979 21.6272H163.911C163.944 18.9299 163.944 16.3934 163.911 13.6961C163.878 11.2213 163.121 10.1424 161.639 10.1424C161.278 10.1424 161.004 10.163 160.685 10.2165C160.476 10.2494 160.034 10.3318 159.493 10.5254C159.42 10.55 159.346 10.583 159.276 10.6077C159.526 11.4271 159.645 12.3208 159.653 13.2514C159.686 16.2657 159.686 18.6129 159.653 21.6272H155.584C155.616 18.9299 155.616 16.3934 155.584 13.6961C155.552 11.0318 154.794 10.1424 153.312 10.1424C152.399 10.1424 151.769 10.303 151.326 10.5871V21.6272H147.258V7.60575C148.928 6.62158 150.348 6.30449 152.903 6.30449C154.548 6.30449 155.842 6.6751 156.845 7.30518C157.328 7.10752 157.872 6.91395 158.483 6.74924C159.19 6.55982 160.206 6.28801 161.446 6.30449C162.375 6.31687 164.611 6.34982 166.174 7.8487C167.517 9.13352 167.955 11.0936 167.975 13.2514C168.008 16.2657 168.008 18.6129 167.975 21.6272H167.979ZM91.993 21.6272H87.8707V0H91.993V21.6272Z" fill="#EAEAEA"/>
<path d="M30.481 21.9095C29.3181 21.9095 28.266 21.712 27.3246 21.317C26.3832 20.9032 25.5802 20.3485 24.9157 19.6526C24.2512 18.9379 23.7344 18.1292 23.3652 17.2264C23.0145 16.3048 22.8391 15.3363 22.8391 14.3207C22.8391 12.9102 23.1437 11.6219 23.7528 10.4558C24.3804 9.28971 25.2664 8.35881 26.4109 7.66292C27.5737 6.94821 28.9397 6.59088 30.5087 6.59088C32.0962 6.59088 33.4529 6.94821 34.5789 7.66292C35.7048 8.35881 36.5631 9.28971 37.1538 10.4558C37.7629 11.603 38.0676 12.8443 38.0676 14.1797C38.0676 14.4053 38.0583 14.6404 38.0399 14.8849C38.0214 15.1106 38.0029 15.2987 37.9845 15.4492H26.7709C26.8446 16.2014 27.057 16.8597 27.4076 17.4239C27.7768 17.9882 28.2383 18.4207 28.792 18.7217C29.3642 19.0037 29.9734 19.1447 30.6195 19.1447C31.3578 19.1447 32.05 18.9661 32.696 18.6088C33.3605 18.2326 33.8128 17.7436 34.0528 17.1418L37.2368 18.0445C36.8862 18.7969 36.3786 19.4645 35.714 20.0475C35.068 20.6305 34.302 21.0914 33.4159 21.4299C32.5299 21.7496 31.5516 21.9095 30.481 21.9095ZM26.6878 13.0511H34.2743C34.2004 12.2989 33.9882 11.6501 33.6374 11.1046C33.3052 10.5404 32.8622 10.1079 32.3084 9.80692C31.7546 9.48725 31.1363 9.32737 30.4533 9.32737C29.7888 9.32737 29.1797 9.48725 28.6259 9.80692C28.0906 10.1079 27.6476 10.5404 27.297 11.1046C26.9646 11.6501 26.7616 12.2989 26.6878 13.0511Z" fill="#EAEAEA"/>
<path d="M95.9167 23.7461C96.2531 23.8209 96.5608 23.8864 96.8411 23.9426C97.1394 23.9987 97.3914 24.0267 97.5967 24.0267C97.9516 24.0267 98.2409 23.9332 98.465 23.7461C98.708 23.5776 98.9416 23.2597 99.1657 22.7919C99.3895 22.3429 99.623 21.7069 99.8656 20.8837L94.0682 6.17847H97.961L101.91 17.039L105.382 6.17847H108.968L102.806 23.8022C102.582 24.4571 102.237 25.0463 101.77 25.5702C101.322 26.1127 100.752 26.5338 100.061 26.8331C99.3894 27.1511 98.6334 27.3101 97.793 27.3101C97.4943 27.3101 97.196 27.2821 96.8968 27.2259C96.5981 27.1885 96.2715 27.1137 95.9167 27.0015V23.7461Z" fill="#EAEAEA"/>
</svg>
