<svg width="230" height="48" viewBox="0 0 230 48" fill="none" xmlns="http://www.w3.org/2000/svg">
<mask id="mask0_666_239" style="mask-type:luminance" maskUnits="userSpaceOnUse" x="0" y="0" width="230" height="48">
<path d="M229.173 0H0V47.7928H229.173V0Z" fill="white"/>
</mask>
<g mask="url(#mask0_666_239)">
<path d="M151.081 23.1091H150.869C149.109 23.1091 147.683 24.544 147.683 26.314C147.683 28.084 149.109 29.519 150.869 29.519H151.081C152.841 29.519 154.267 28.084 154.267 26.314C154.267 24.544 152.841 23.1091 151.081 23.1091Z" fill="#FFD400"/>
<path d="M58.607 0.55957V30.0787H53.3134V0.55957H58.607ZM66.5721 9.72451H72.8995L64.9025 18.7464L73.4584 30.0787H67.9798L61.8252 21.8242L58.607 25.1818V18.7464L67.1405 9.72451H66.5721ZM88.6059 9.72451V10.1181L88.7346 11.327C87.8293 10.1631 85.2914 9.20728 83.3516 9.20728C77.2368 9.20728 72.8044 13.3231 72.8044 19.9016C72.8044 25.9628 76.896 30.6465 83.3516 30.6465C85.5488 30.6465 88.0022 29.865 88.9024 28.5661L88.7737 29.865V30.0842H94.2849V9.72451H88.6059ZM83.6929 25.5355C80.9821 25.5355 78.4442 23.5451 78.4442 19.9016C78.4442 16.2581 80.9821 14.3183 83.6929 14.3183C86.5324 14.3183 88.8577 16.438 88.8577 19.9016C88.8577 23.3651 86.5324 25.5355 83.6929 25.5355ZM96.8619 30.0842V10.939C99.1033 9.64018 103.15 9.16228 105.643 9.16228C114.257 9.16228 116.878 13.4918 116.923 18.3441C116.968 22.4599 116.968 25.9685 116.923 30.0787H111.327C111.372 26.3958 111.372 22.9322 111.327 19.2494C111.284 15.8702 109.606 14.397 106.202 14.397C104.609 14.397 103.061 14.6557 102.412 15.0492V30.0787H96.8563L96.8619 30.0842ZM167.615 30.8208C160.812 30.8208 156.681 26.4015 156.681 19.9916C156.681 13.5817 160.857 9.20728 167.615 9.20728C170.885 9.20728 174.032 10.4611 175.927 12.7608L172.523 16.3536C171.147 14.8356 169.639 14.2339 167.615 14.2339C164.73 14.2339 162.232 16.573 162.232 19.9916C162.232 23.7137 164.557 25.7942 167.615 25.7942C169.426 25.7942 171.489 25.1026 172.607 23.6744L175.837 27.3573C173.942 29.6514 171.058 30.8208 167.615 30.8208ZM187.76 9.21287C181.002 9.21287 176.827 13.6323 176.827 19.9916C176.827 26.3508 180.957 30.8208 187.76 30.8208C194.562 30.8208 198.738 26.4015 198.738 19.9916C198.738 13.5817 194.517 9.21287 187.76 9.21287ZM187.76 25.7548C184.875 25.7548 182.293 23.8488 182.293 19.9972C182.293 16.1456 185.043 14.2395 187.76 14.2395C190.476 14.2395 193.226 16.1456 193.226 19.9972C193.226 23.8488 190.689 25.7548 187.76 25.7548ZM28.2945 30.0899H22.7384C22.7831 26.407 22.7831 22.9435 22.7384 19.2606C22.6937 15.8814 21.6597 14.4082 19.6362 14.4082C19.1443 14.4082 18.7699 14.4364 18.3338 14.5094C18.0488 14.5544 17.4451 14.6669 16.7073 14.9312C16.6066 14.9648 16.506 15.0099 16.411 15.0436C16.7519 16.1625 16.914 17.3827 16.9252 18.6534C16.97 22.7692 16.97 25.974 16.9252 30.0899H11.3692C11.4139 26.407 11.4139 22.9435 11.3692 19.2606C11.3245 15.6227 10.2905 14.4082 8.26701 14.4082C7.02049 14.4082 6.15969 14.6276 5.55605 15.0154V30.0899H0V10.9447C2.28056 9.60084 4.22014 9.16788 7.70801 9.16788C9.95509 9.16788 11.7214 9.67392 13.0908 10.5342C13.7504 10.2644 14.4938 10.0001 15.3266 9.77515C16.2936 9.51651 17.6799 9.14539 19.3735 9.16788C20.6424 9.18478 23.6942 9.22977 25.8295 11.2764C27.6628 13.0307 28.261 15.7071 28.2889 18.6534C28.3336 22.7692 28.3336 25.974 28.2889 30.0899H28.2945ZM228.921 30.0899H223.366C223.411 26.407 223.411 22.9435 223.366 19.2606C223.321 15.8814 222.287 14.4082 220.263 14.4082C219.771 14.4082 219.397 14.4364 218.961 14.5094C218.676 14.5544 218.072 14.6669 217.334 14.9312C217.234 14.9648 217.133 15.0099 217.037 15.0436C217.379 16.1625 217.541 17.3827 217.553 18.6534C217.597 22.7692 217.597 25.974 217.553 30.0899H211.996C212.04 26.407 212.04 22.9435 211.996 19.2606C211.952 15.6227 210.917 14.4082 208.894 14.4082C207.647 14.4082 206.787 14.6276 206.182 15.0154V30.0899H200.627V10.9447C202.908 9.60084 204.847 9.16788 208.335 9.16788C210.582 9.16788 212.349 9.67392 213.718 10.5342C214.377 10.2644 215.12 10.0001 215.954 9.77515C216.92 9.51651 218.307 9.14539 220 9.16788C221.269 9.18478 224.321 9.22977 226.456 11.2764C228.289 13.0307 228.888 15.7071 228.916 18.6534C228.96 22.7692 228.96 25.974 228.916 30.0899H228.921ZM125.167 30.0899H119.539V0.55957H125.167V30.0899Z" fill="url(#paint0_linear_666_239)"/>
<path d="M41.1773 30.475C39.5895 30.475 38.1529 30.2053 36.8675 29.666C35.5821 29.101 34.4857 28.3435 33.5783 27.3933C32.6711 26.4175 31.9653 25.3133 31.4613 24.0806C30.9824 22.8223 30.7429 21.4998 30.7429 20.1131C30.7429 18.1871 31.1589 16.428 31.9905 14.8359C32.8475 13.2436 34.0573 11.9726 35.6199 11.0224C37.2077 10.0465 39.0728 9.55859 41.2152 9.55859C43.3827 9.55859 45.2352 10.0465 46.7727 11.0224C48.3101 11.9726 49.4821 13.2436 50.2885 14.8359C51.1203 16.4023 51.5362 18.0972 51.5362 19.9205C51.5362 20.2286 51.5236 20.5496 51.4984 20.8835C51.4732 21.1916 51.4479 21.4484 51.4228 21.6539H36.1114C36.2121 22.681 36.5021 23.5799 36.9809 24.3503C37.485 25.1208 38.1151 25.7113 38.8711 26.1223C39.6525 26.5073 40.4842 26.6999 41.3664 26.6999C42.3746 26.6999 43.3197 26.456 44.2018 25.9682C45.1091 25.4545 45.7266 24.7868 46.0543 23.965L50.4019 25.1977C49.9231 26.225 49.2301 27.1365 48.3226 27.9326C47.4405 28.7287 46.3947 29.3579 45.1848 29.8201C43.975 30.2567 42.6392 30.475 41.1773 30.475ZM35.998 18.3796H46.3568C46.256 17.3525 45.9661 16.4666 45.4872 15.7218C45.0336 14.9514 44.4287 14.3608 43.6726 13.9498C42.9164 13.5134 42.0722 13.2951 41.1396 13.2951C40.2322 13.2951 39.4005 13.5134 38.6444 13.9498C37.9135 14.3608 37.3086 14.9514 36.8298 15.7218C36.376 16.4666 36.0987 17.3525 35.998 18.3796Z" fill="url(#paint1_linear_666_239)"/>
<path d="M130.525 32.9834C130.985 33.0855 131.405 33.1749 131.788 33.2517C132.195 33.3282 132.539 33.3666 132.819 33.3666C133.304 33.3666 133.699 33.2388 134.005 32.9834C134.337 32.7534 134.656 32.3192 134.962 31.6805C135.267 31.0674 135.586 30.199 135.917 29.075L128.001 8.99609H133.317L138.709 23.8253L143.45 8.99609H148.346L139.932 33.06C139.626 33.9542 139.155 34.7587 138.517 35.4741C137.906 36.2149 137.128 36.7897 136.185 37.1984C135.267 37.6327 134.235 37.8498 133.087 37.8498C132.679 37.8498 132.272 37.8115 131.864 37.7348C131.456 37.6837 131.01 37.5816 130.525 37.4284V32.9834Z" fill="url(#paint2_linear_666_239)"/>
</g>
<defs>
<linearGradient id="paint0_linear_666_239" x1="0" y1="15.6902" x2="228.949" y2="15.6902" gradientUnits="userSpaceOnUse">
<stop stop-color="#384CFF"/>
<stop offset="1" stop-color="#00A3FF"/>
</linearGradient>
<linearGradient id="paint1_linear_666_239" x1="23.4051" y1="19.0196" x2="79.967" y2="24.8699" gradientUnits="userSpaceOnUse">
<stop stop-color="#384CFF"/>
<stop offset="0.503838" stop-color="#236DFF"/>
<stop offset="1" stop-color="#00A3FF"/>
</linearGradient>
<linearGradient id="paint2_linear_666_239" x1="45.8349" y1="23.4085" x2="161.397" y2="29.2588" gradientUnits="userSpaceOnUse">
<stop stop-color="#0030BF"/>
<stop offset="0.652188" stop-color="#0077E6"/>
<stop offset="1" stop-color="#00A3FF"/>
</linearGradient>
</defs>
</svg>
