<svg width="2160" height="4800" viewBox="0 0 2160 4800" fill="none" xmlns="http://www.w3.org/2000/svg">
<g clip-path="url(#clip0_666_248)">
<path d="M2160 0H0V4800H2160V0Z" fill="white"/>
<mask id="mask0_666_248" style="mask-type:luminance" maskUnits="userSpaceOnUse" x="330" y="2244" width="1500" height="313">
<path d="M1830 2244H330V2556.82H1830V2244Z" fill="white"/>
</mask>
<g mask="url(#mask0_666_248)">
<path d="M1318.87 2395.26H1317.48C1305.96 2395.26 1296.63 2404.65 1296.63 2416.23C1296.63 2427.82 1305.96 2437.21 1317.48 2437.21H1318.87C1330.39 2437.21 1339.72 2427.82 1339.72 2416.23C1339.72 2404.65 1330.39 2395.26 1318.87 2395.26Z" fill="#FFD400"/>
<path d="M713.599 2247.66V2440.87H678.951V2247.66H713.599ZM765.732 2307.65H807.147L754.805 2366.7L810.806 2440.87H774.946L734.663 2386.84L713.599 2408.82V2366.7L769.453 2307.65H765.732ZM909.95 2307.65V2310.23L910.792 2318.14C904.867 2310.52 888.256 2304.26 875.559 2304.26C835.536 2304.26 806.525 2331.2 806.525 2374.26C806.525 2413.93 833.306 2444.59 875.559 2444.59C889.94 2444.59 905.999 2439.47 911.891 2430.97L911.049 2439.47V2440.91H947.12V2307.65H909.95ZM877.793 2411.14C860.05 2411.14 843.439 2398.11 843.439 2374.26C843.439 2350.41 860.05 2337.72 877.793 2337.72C896.378 2337.72 911.598 2351.59 911.598 2374.26C911.598 2396.93 896.378 2411.14 877.793 2411.14ZM963.988 2440.91V2315.6C978.658 2307.1 1005.15 2303.97 1021.46 2303.97C1077.84 2303.97 1095 2332.31 1095.29 2364.07C1095.59 2391.01 1095.59 2413.97 1095.29 2440.87H1058.67C1058.96 2416.77 1058.96 2394.1 1058.67 2369.99C1058.38 2347.87 1047.4 2338.23 1025.12 2338.23C1014.7 2338.23 1004.56 2339.92 1000.32 2342.5V2440.87H963.951L963.988 2440.91ZM1427.09 2445.73C1382.56 2445.73 1355.52 2416.8 1355.52 2374.85C1355.52 2332.9 1382.85 2304.26 1427.09 2304.26C1448.49 2304.26 1469.09 2312.47 1481.49 2327.52L1459.21 2351.04C1450.21 2341.1 1440.33 2337.16 1427.09 2337.16C1408.21 2337.16 1391.85 2352.47 1391.85 2374.85C1391.85 2399.21 1407.07 2412.83 1427.09 2412.83C1438.94 2412.83 1452.44 2408.3 1459.76 2398.96L1480.9 2423.06C1468.5 2438.08 1449.62 2445.73 1427.09 2445.73ZM1558.94 2304.3C1514.71 2304.3 1487.38 2333.23 1487.38 2374.85C1487.38 2416.47 1514.41 2445.73 1558.94 2445.73C1603.46 2445.73 1630.79 2416.8 1630.79 2374.85C1630.79 2332.9 1603.17 2304.3 1558.94 2304.3ZM1558.94 2412.57C1540.06 2412.57 1523.16 2400.1 1523.16 2374.89C1523.16 2349.68 1541.16 2337.2 1558.94 2337.2C1576.72 2337.2 1594.72 2349.68 1594.72 2374.89C1594.72 2400.1 1578.11 2412.57 1558.94 2412.57ZM515.195 2440.95H478.829C479.122 2416.84 479.122 2394.17 478.829 2370.07C478.536 2347.95 471.769 2338.31 458.524 2338.31C455.305 2338.31 452.854 2338.49 450 2338.97C448.134 2339.26 444.183 2340 439.354 2341.73C438.695 2341.95 438.036 2342.24 437.415 2342.46C439.646 2349.79 440.707 2357.77 440.78 2366.09C441.073 2393.03 441.073 2414.01 440.78 2440.95H404.415C404.707 2416.84 404.707 2394.17 404.415 2370.07C404.122 2346.25 397.354 2338.31 384.11 2338.31C375.951 2338.31 370.317 2339.74 366.366 2342.28V2440.95H330V2315.64C344.927 2306.84 357.622 2304.01 380.451 2304.01C395.159 2304.01 406.72 2307.32 415.683 2312.95C420 2311.18 424.866 2309.45 430.317 2307.98C436.646 2306.29 445.72 2303.86 456.805 2304.01C465.11 2304.12 485.085 2304.41 499.061 2317.81C511.061 2329.29 514.976 2346.81 515.159 2366.09C515.451 2393.03 515.451 2414.01 515.159 2440.95H515.195ZM1828.35 2440.95H1791.99C1792.28 2416.84 1792.28 2394.17 1791.99 2370.07C1791.69 2347.95 1784.93 2338.31 1771.68 2338.31C1768.46 2338.31 1766.01 2338.49 1763.16 2338.97C1761.3 2339.26 1757.34 2340 1752.51 2341.73C1751.85 2341.95 1751.2 2342.24 1750.57 2342.46C1752.8 2349.79 1753.86 2357.77 1753.94 2366.09C1754.23 2393.03 1754.23 2414.01 1753.94 2440.95H1717.57C1717.86 2416.84 1717.86 2394.17 1717.57 2370.07C1717.28 2346.25 1710.51 2338.31 1697.27 2338.31C1689.11 2338.31 1683.48 2339.74 1679.52 2342.28V2440.95H1643.16V2315.64C1658.09 2306.84 1670.78 2304.01 1693.61 2304.01C1708.32 2304.01 1719.88 2307.32 1728.84 2312.95C1733.16 2311.18 1738.02 2309.45 1743.48 2307.98C1749.8 2306.29 1758.88 2303.86 1769.96 2304.01C1778.27 2304.12 1798.25 2304.41 1812.22 2317.81C1824.22 2329.29 1828.14 2346.81 1828.32 2366.09C1828.61 2393.03 1828.61 2414.01 1828.32 2440.95H1828.35ZM1149.25 2440.95H1112.41V2247.66H1149.25V2440.95Z" fill="url(#paint0_linear_666_248)"/>
<path d="M599.517 2443.47C589.124 2443.47 579.721 2441.7 571.308 2438.17C562.894 2434.47 555.719 2429.52 549.779 2423.3C543.841 2416.91 539.222 2409.68 535.923 2401.61C532.789 2393.38 531.221 2384.72 531.221 2375.65C531.221 2363.04 533.943 2351.53 539.387 2341.1C544.996 2330.68 552.914 2322.36 563.142 2316.14C573.535 2309.76 585.742 2306.56 599.765 2306.56C613.952 2306.56 626.077 2309.76 636.14 2316.14C646.203 2322.36 653.874 2330.68 659.152 2341.1C664.596 2351.36 667.319 2362.45 667.319 2374.38C667.319 2376.4 667.236 2378.5 667.071 2380.69C666.906 2382.7 666.741 2384.39 666.576 2385.73H566.359C567.018 2392.45 568.916 2398.34 572.05 2403.38C575.35 2408.42 579.474 2412.29 584.422 2414.98C589.536 2417.5 594.98 2418.76 600.754 2418.76C607.353 2418.76 613.54 2417.16 619.313 2413.97C625.252 2410.61 629.293 2406.24 631.438 2400.86L659.895 2408.93C656.761 2415.65 652.224 2421.62 646.285 2426.83C640.511 2432.04 633.666 2436.15 625.747 2439.18C617.828 2442.04 609.085 2443.47 599.517 2443.47ZM565.617 2364.3H633.418C632.758 2357.58 630.861 2351.78 627.726 2346.9C624.757 2341.86 620.798 2337.99 615.849 2335.3C610.9 2332.45 605.374 2331.02 599.27 2331.02C593.331 2331.02 587.887 2332.45 582.938 2335.3C578.154 2337.99 574.195 2341.86 571.061 2346.9C568.091 2351.78 566.276 2357.58 565.617 2364.3Z" fill="url(#paint1_linear_666_248)"/>
<path d="M1184.32 2459.88C1187.33 2460.55 1190.08 2461.14 1192.59 2461.64C1195.25 2462.14 1197.5 2462.39 1199.34 2462.39C1202.51 2462.39 1205.1 2461.56 1207.1 2459.88C1209.27 2458.38 1211.36 2455.54 1213.36 2451.36C1215.36 2447.34 1217.45 2441.66 1219.62 2434.3L1167.8 2302.88H1202.59L1237.89 2399.94L1268.92 2302.88H1300.96L1245.89 2460.39C1243.89 2466.24 1240.81 2471.5 1236.63 2476.19C1232.63 2481.04 1227.54 2484.8 1221.37 2487.47C1215.36 2490.32 1208.6 2491.74 1201.09 2491.74C1198.42 2491.74 1195.76 2491.49 1193.08 2490.98C1190.41 2490.65 1187.5 2489.98 1184.32 2488.98V2459.88Z" fill="url(#paint2_linear_666_248)"/>
</g>
</g>
<defs>
<linearGradient id="paint0_linear_666_248" x1="330" y1="2346.7" x2="1828.54" y2="2346.7" gradientUnits="userSpaceOnUse">
<stop stop-color="#384CFF"/>
<stop offset="1" stop-color="#00A3FF"/>
</linearGradient>
<linearGradient id="paint1_linear_666_248" x1="483.193" y1="2368.49" x2="853.406" y2="2406.78" gradientUnits="userSpaceOnUse">
<stop stop-color="#384CFF"/>
<stop offset="0.503838" stop-color="#236DFF"/>
<stop offset="1" stop-color="#00A3FF"/>
</linearGradient>
<linearGradient id="paint2_linear_666_248" x1="630.001" y1="2397.21" x2="1386.38" y2="2435.51" gradientUnits="userSpaceOnUse">
<stop stop-color="#0030BF"/>
<stop offset="0.652188" stop-color="#0077E6"/>
<stop offset="1" stop-color="#00A3FF"/>
</linearGradient>
<clipPath id="clip0_666_248">
<rect width="2160" height="4800" fill="white"/>
</clipPath>
</defs>
</svg>
