<?xml version="1.0" encoding="iso-8859-1"?>
<!-- Uploaded to: SVG Repo, www.svgrepo.com, Generator: SVG Repo Mixer Tools -->
<svg fill="#000000" height="800px" width="800px" version="1.1" id="Layer_1" xmlns="http://www.w3.org/2000/svg" xmlns:xlink="http://www.w3.org/1999/xlink" 
	 viewBox="0 0 512 512" xml:space="preserve">
<g>
	<g>
		<path d="M320,304v64h15.94h131.944H484v-64H320z M420.02,336h-33.132c-2.212,0-4-1.788-4-4c0-2.208,1.784-4,4-4h33.132
			c2.212,0,4,1.792,4,4C424.02,334.212,422.232,336,420.02,336z"/>
	</g>
</g>
<g>
	<g>
		<path d="M320,236v4.304V296h164v-55.696V236H320z M420.02,272h-33.132c-2.212,0-4-1.788-4-4c0-2.208,1.784-4,4-4h33.132
			c2.212,0,4,1.792,4,4C424.02,270.212,422.232,272,420.02,272z"/>
	</g>
</g>
<g>
	<g>
		<path d="M0,144v20h32v204h24.128l-0.576-204H320v64h164v-64h28v-20H0z M420.02,204h-33.132c-2.212,0-4-1.788-4-4
			c0-2.208,1.788-4,4-4h33.132c2.212,0,4,1.792,4,4C424.02,202.212,422.232,204,420.02,204z"/>
	</g>
</g>
</svg>