<svg width="63" height="63" viewBox="0 0 63 63" fill="none" xmlns="http://www.w3.org/2000/svg">
<g clip-path="url(#clip0_710_227)">
<path d="M31.5001 61.1471C47.8737 61.1471 61.1471 47.8737 61.1471 31.5001C61.1471 15.1265 47.8737 1.85303 31.5001 1.85303C15.1265 1.85303 1.85303 15.1265 1.85303 31.5001C1.85303 47.8737 15.1265 61.1471 31.5001 61.1471Z" stroke="url(#paint0_radial_710_227)" stroke-width="3"/>
<mask id="mask0_710_227" style="mask-type:luminance" maskUnits="userSpaceOnUse" x="5" y="5" width="53" height="53">
<path d="M57.4409 31.5C57.4409 17.1731 45.8267 5.55884 31.4998 5.55884C17.1729 5.55884 5.55859 17.1731 5.55859 31.5C5.55859 45.8269 17.1729 57.4412 31.4998 57.4412C45.8267 57.4412 57.4409 45.8269 57.4409 31.5Z" fill="white"/>
</mask>
<g mask="url(#mask0_710_227)">
<path d="M57.4409 5.55884H5.55859V57.4412H57.4409V5.55884Z" fill="url(#paint1_linear_710_227)"/>
<path d="M47.5612 33.8013H47.3725C45.8263 33.8013 44.5728 35.0548 44.5728 36.6013C44.5728 38.1475 45.8263 39.401 47.3725 39.401H47.5612C49.1075 39.401 50.361 38.1475 50.361 36.6013C50.361 35.0548 49.1075 33.8013 47.5612 33.8013Z" fill="#FFD400"/>
<path d="M42.795 29.4117C42.7737 26.8368 42.2447 24.4971 40.6345 22.9649C38.7599 21.1804 36.0746 21.1409 34.9619 21.1248C33.4723 21.1035 32.2533 21.4277 31.4052 21.6547C30.6725 21.8502 30.017 22.0803 29.4383 22.3164C28.2344 21.5665 26.6821 21.1248 24.7081 21.1248C21.6428 21.1248 19.9404 21.5026 17.9351 22.6761V39.4011H22.8163V26.233C23.3462 25.8924 24.1031 25.7028 25.2006 25.7028C26.9791 25.7028 27.887 26.7629 27.9254 29.9407C27.963 33.157 27.963 36.1838 27.9254 39.4011H32.8066C32.8442 35.8067 32.8442 33.006 32.8066 29.4117C32.7975 28.301 32.6526 27.235 32.3558 26.2582C32.4419 26.2237 32.5279 26.1892 32.6172 26.1579C33.2617 25.9289 33.7957 25.8305 34.0449 25.7901C34.4279 25.7282 34.7594 25.704 35.19 25.704C36.9683 25.704 37.8764 26.9908 37.9148 29.9416C37.9524 33.158 37.9524 36.1847 37.9148 39.402H42.796C42.8336 35.8079 42.8327 33.0058 42.795 29.4117Z" fill="white"/>
</g>
</g>
<defs>
<radialGradient id="paint0_radial_710_227" cx="0" cy="0" r="1" gradientUnits="userSpaceOnUse" gradientTransform="translate(17.6031 65.7141) rotate(-65.1477) scale(68.3365 63.5583)">
<stop stop-color="#FFDD55"/>
<stop offset="0.5" stop-color="#00AAFF"/>
<stop offset="0.74935" stop-color="#FFDD55"/>
<stop offset="1" stop-color="#0C45EE"/>
</radialGradient>
<linearGradient id="paint1_linear_710_227" x1="5.55859" y1="57.4412" x2="57.4409" y2="5.55884" gradientUnits="userSpaceOnUse">
<stop stop-color="#0030BF"/>
<stop offset="1" stop-color="#00AAFF"/>
</linearGradient>
<clipPath id="clip0_710_227">
<rect width="63" height="63" fill="white"/>
</clipPath>
</defs>
</svg>
