<svg xmlns="http://www.w3.org/2000/svg" viewBox="0 0 384 288.1"><g id="Слой_2" data-name="Слой 2"><g id="Слой_1-2" data-name="Слой 1"><path d="M0,279.78c2.11-3.07,5-4,8.69-3.8s7.51-.12,11.24.11c2.74.17,3.6-.86,3.24-3.41a20.8,20.8,0,0,1,0-2.62V75.12c0-7.66,1.45-9.09,9.23-9.09,23.25,0,46.49,0,69.73,0a7.05,7.05,0,0,0,5.81-2.49q27.3-29.91,54.74-59.67c4.87-5.31,7.74-5.25,12.44.31L328.2,185.5c.65.76,1.3,1.52,1.9,2.32,2.33,3.07,2.13,6.37-.49,8.67s-5.78,2.08-8.47-1.06c-5.05-5.87-10-11.85-15-17.74-.84-1-1.45-2.28-2.9-2.75-.84,1.19-.46,2.46-.46,3.64,0,31.12,0,62.24-.09,93.35,0,3.15.58,4.27,4,4.2,11.62-.25,23.24-.08,34.86-.13,1.19,0,3.26.74,3.05-1.51-.19-2.07,1.57-4.67-1.72-6.14-11.59-5.16-15.62-11.85-14.39-24.51,1.36-14.06,3.57-28,8.25-41.4a34.29,34.29,0,0,1,5.7-10.89c4.18-5,9.06-5,13.24,0,3.74,4.53,5.59,10,7.22,15.51a192.91,192.91,0,0,1,6.88,38.65c.89,10.5-4.09,18.59-13.93,22.29-3.84,1.45-2.38,4.21-2.36,6.47,0,2.66,2.46,1.44,3.8,1.47,6,.14,12,.24,18,0,3.67-.16,6.57.76,8.69,3.81v4.5c-2.13,3-5,3.82-8.69,3.82Q192,288,8.69,288.1c-3.65,0-6.57-.76-8.69-3.82ZM121.36,66h20.9c7.38,0,9.06,1.66,9.06,9,0,25.75,0,51.49,0,77.23,0,2.75.45,3.85,3.6,3.84,43.24-.11,86.48-.07,129.71-.1.89,0,2,.52,2.69-.57a4.39,4.39,0,0,0-.36-.69Q228.67,85.95,170.45,17.11c-1.86-2.2-2.66-1.39-4.14.22q-18.78,20.42-37.67,40.73C126.39,60.49,124.16,63,121.36,66Zm18.21,111c0-31.5-.06-63,.08-94.49,0-3.49-.64-4.59-4.4-4.57q-47.81.27-95.61,0c-3.65,0-4.82.68-4.79,4.61.19,28.5.1,57,.1,85.49q0,52.13-.05,104.24c0,2.8.55,3.93,3.65,3.82,6.87-.25,13.76-.3,20.62,0,3.68.16,4.74-.71,4.73-4.61q-.23-80.61-.09-161.23c0-6.34,1.91-8.24,8.29-8.24h46.49c7.92,0,9.45,1.51,9.45,9.38V268.52c0,7.54,0,7.38,7.68,7.59,3.09.08,3.94-.72,3.93-3.88C139.52,240.49,139.57,208.74,139.57,177Zm69.83,45c0,16.75,0,33.5-.06,50.24,0,2.78.49,3.86,3.63,3.84q37.31-.21,74.6,0c2.52,0,3.43-.52,3.42-3.25q-.14-50.8,0-101.6c0-2.73-.91-3.26-3.42-3.25q-37.31.14-74.6,0c-3.15,0-3.65,1.08-3.63,3.85C209.45,188.54,209.4,205.29,209.4,222ZM198,222c0-16.86,0-33.72.05-50.58,0-2.4-.32-3.5-3.16-3.47-13.48.16-27,.13-40.46,0-2.42,0-3.16.65-3.16,3.12q.12,51,0,101.91c0,2.53.84,3.09,3.2,3.07,13.37-.1,26.73-.13,40.09,0,2.81,0,3.53-.71,3.51-3.51C197.93,255.73,198,238.87,198,222Zm-81.7-54c0-16.87,0-33.75,0-50.62,0-2.45-.38-3.49-3.19-3.45-11.5.16-23,.11-34.5,0-2.18,0-3,.42-3,2.85q.12,51.19,0,102.37c0,2.41.8,2.89,3,2.87,11.37-.1,22.75-.18,34.12,0,3.16.06,3.61-1.09,3.59-3.83C116.25,201.54,116.3,184.79,116.3,168ZM75.7,255c0,5.88.11,11.75,0,17.62-.07,2.47.4,3.49,3.2,3.45,11.49-.16,23-.12,34.49,0,2.2,0,3-.44,3-2.86q-.19-18.2,0-36.37c0-2.43-.83-2.88-3-2.86-11.5.09-23,.14-34.49,0-2.8,0-3.27,1-3.2,3.44C75.81,243.28,75.7,249.16,75.7,255Zm268.12,4.52c.15-3,.2-5.37.42-7.72s1.6-4,4.1-4,3.94,1.5,4.19,3.94.32,4.94.47,7.42c5.09-1.8,7.95-6.09,7.63-12.28a171.66,171.66,0,0,0-4.8-30.29c-1.37-5.83-2.78-11.66-5.43-17.08-.42-.85-.73-2.18-1.88-2-.61.1-1.16,1.21-1.53,2-2.55,5.33-4,11-5.31,16.73-2.36,10-4.44,20-4.92,30.27C336.51,251.9,338.29,256.46,343.82,259.55Z"/></g></g></svg>