<svg xmlns="http://www.w3.org/2000/svg" viewBox="0 0 410.24 409.24"><g id="Слой_2" data-name="Слой 2"><g id="Слой_1-2" data-name="Слой 1"><path d="M.22,400C2,396.29,5,395.09,9,395.16c9.46.16,18.93-.06,28.4.12,2.92.06,3.89-.64,3.82-3.71-.22-8.64-.08-17.3-.08-25.95V11.14a40.11,40.11,0,0,1,.08-4.39c.47-4.34,2.64-6.4,7-6.71,1.06-.07,2.13,0,3.2,0H229c8.5,0,10.24,1.76,10.24,10.35,0,31.27.09,62.54-.11,93.81,0,4.21,1.24,5,5.14,5,31.07-.15,62.13-.09,93.2-.07a41.33,41.33,0,0,1,5.57.3,5.65,5.65,0,0,1,5.13,5.28,37.27,37.27,0,0,1,.17,5.18q0,110.39-.08,220.76c0,3.35,1,5.07,3.92,6.83,16.07,9.73,23.83,24.24,23.24,42.93-.13,4.13.85,5.17,4.89,5,6.91-.35,13.86,0,20.79-.15,4-.1,7,1.13,8.75,4.87,0,2.93,1.14,7-.32,8.46s-5.55.32-8.48.32q-198.19,0-396.4.11c-3.76,0-5.15-.73-4.44-4.51A24.59,24.59,0,0,0,.22,400ZM183.86,327c1-1.65.6-3.14.61-4.54,0-13.3,0-26.6,0-39.91V119.29c0-8.56,1.7-10.23,10.32-10.24,8.8,0,17.6-.18,26.39.08,3.58.11,4.44-1,4.42-4.48q-.21-43.31,0-86.6c0-3.82-1.2-4.52-4.71-4.51q-80.38.15-160.76.08c-6.09,0-5.38-.79-5.38,5.22q0,185.59,0,371.18c0,.66,0,1.33,0,2,0,1.55-.37,3.57,2.21,3.14,2-.33,5,1.64,5.67-2.37a41.54,41.54,0,0,1,5-13.78,7.48,7.48,0,0,0,.87-4.16c-.13-4.78-.17-9.58.12-14.35.22-3.64,2.38-5.82,6.19-6s6.28,1.54,7,5.53c.4,2.29,1,2.65,2.93,1.38a40.69,40.69,0,0,1,16-5.91,3.06,3.06,0,0,0,3-2.91,38.92,38.92,0,0,1,4.3-12.36,12.27,12.27,0,0,0,1.48-7.18,113.94,113.94,0,0,1,.2-13.95c.24-3.62,2.7-5.35,6.21-5.45s5.89,1.28,6.78,4.86c.27,1.07-.06,2.4,1.09,3.18C144,308.77,166.81,311.76,183.86,327Zm150.81-95.15c0-34.85-.05-69.71.09-104.57,0-3.59-.84-4.65-4.56-4.63q-63.58.19-127.17,0c-4.28,0-4.95,1.35-4.94,5.18q.19,70.85.08,141.69c0,22,0,43.91,0,65.86,0,3,.47,3.61,3.5,2.28,14-6.14,27.56-4.76,40.31,3.48,2.37,1.53,4.17,1.95,6.87,1.13,6.73-2.07,13.95-2.58,20.49-.65a43.1,43.1,0,0,1,21.58,13.77c.49.59,1.28,2,2.14.9,2.53-3.37,7.49-4.62,7.94-9.9.38-4.36,4.6-7.12,8.44-5.06s7.05.92,10.59.2a31,31,0,0,1,10.34-.51c3.51.47,4.45-.54,4.44-4.16C334.61,301.81,334.67,266.82,334.67,231.82ZM220.9,395c-4.64-15.87-1.66-29.87,9.48-41.94,1.54-1.66.88-2.38-.79-3.13a26.33,26.33,0,0,0-18.67-1.21c-6.18,1.75-10.54,5.94-14.87,10.33-4.66,4.71-10.21,3.26-12.21-3.06-.47-1.51-.68-3.11-1.12-4.64a31.82,31.82,0,0,0-16.25-20.22,34,34,0,0,0-50.1,27.91c-.59,7.45-1.89,8.49-9.34,9-15,1-28.75,13.1-30.54,27Zm78.53.18q29.19,0,58.39,0c2.11,0,3.72.08,4.08-2.89,1.79-15.18-7.7-30.88-21.86-35.76-16.53-5.69-32.84,0-41.19,14.36a27.77,27.77,0,0,1-1.69,2.7c-3.34,4.39-8.75,4.06-11.43-.69-.79-1.38-1.42-2.86-2.17-4.26C276,354.48,254,350.44,241.85,361c-8.56,7.46-11.11,20.3-6.34,31.06,1.07,2.41,2.44,3.22,5.13,3.21C260.23,395.15,279.83,395.21,299.43,395.21Z"/><path d="M205,40.91c0,2.39.16,4.79,0,7.15-.34,4.09-2.87,6.35-6.75,6.34s-6.51-2.32-6.68-6.38c-.2-4.76-.21-9.54,0-14.3a6.43,6.43,0,0,1,6.73-6.45c3.71,0,6.39,2.5,6.71,6.49C205.12,36.13,205,38.53,205,40.91Z"/><path d="M150.55,204.19c0-2.38-.11-4.78,0-7.15.22-3.77,2.46-5.74,6.09-6.13,3.46-.37,6.47,1.58,7,5a54.09,54.09,0,0,1,0,17c-.57,3.47-3.54,5.35-7,5s-5.7-2.23-6-5.79c-.21-2.63,0-5.29,0-7.94Z"/><path d="M81.88,41a77.65,77.65,0,0,1,0,7.93c-.37,3.57-2.71,5.32-6.21,5.45s-6.13-1.31-6.69-4.87a53.91,53.91,0,0,1,0-17.38c.57-3.43,3.3-4.79,6.45-4.75,3.35.05,6,1.65,6.4,5.29A79.76,79.76,0,0,1,81.86,41Z"/><path d="M150.58,81.31c0-2.39-.17-4.78,0-7.15a6.05,6.05,0,0,1,6.29-5.89c3.36,0,6.17,1.26,6.73,4.88a53.85,53.85,0,0,1,0,17.37c-.61,3.6-3.42,4.84-6.82,4.68s-5.79-2-6.13-5.56c-.25-2.75-.05-5.55-.05-8.33Z"/><path d="M150.6,122.72c0-2.64-.2-5.31.05-7.93.34-3.55,2.61-5.39,6.13-5.56s6.21,1.08,6.82,4.67a51.94,51.94,0,0,1,0,17.37c-.57,3.49-3.54,5.26-7.1,4.84s-5.65-2.28-5.91-5.84c-.18-2.5,0-5,0-7.55Z"/><path d="M81.94,163.54c0,2.51.12,5,0,7.54-.22,3.83-2.65,5.65-6.21,6a6.18,6.18,0,0,1-6.94-5.63,61.3,61.3,0,0,1,0-15.84c.52-3.89,3.1-5.74,6.94-5.57,3.58.15,5.86,2.2,6.19,5.94C82.12,158.49,81.94,161,81.94,163.54Z"/><path d="M81.88,245.35a77.83,77.83,0,0,1,0,7.94c-.35,3.57-2.69,5.33-6.19,5.47s-6.14-1.29-6.71-4.84a54,54,0,0,1,0-17.39c.56-3.43,3.28-4.8,6.43-4.77,3.34,0,6,1.63,6.41,5.27a74.44,74.44,0,0,1,.06,8.32Z"/><path d="M150.52,285.89c0-2.25-.11-4.51,0-6.75.25-3.93,2.49-6.2,6.17-6.48s6.59,1.71,7.07,5.47a60,60,0,0,1,0,16.23c-.55,3.82-3.26,5.54-7.18,5.24-3.55-.27-5.74-2.42-6-6.16-.17-2.5,0-5,0-7.55Z"/><path d="M109.67,163.4c0-2.51-.21-5.05,0-7.53.38-3.74,2.7-5.77,6.3-5.81s6.26,1.51,6.75,5.3a61.66,61.66,0,0,1,0,16.62c-.52,3.66-3.26,5.13-6.58,5.08s-5.94-1.68-6.36-5.33c-.32-2.76-.3-5.55-.43-8.32Z"/><path d="M109.35,204.23c.13-2.65.11-5.31.42-7.93.42-3.63,2.89-5.3,6.3-5.38s6.09,1.38,6.62,5a57.72,57.72,0,0,1,0,17c-.52,3.59-3.19,5.09-6.6,5s-5.89-1.76-6.32-5.36C109.45,209.8,109.48,207,109.35,204.23Z"/><path d="M109.7,245.31a74.84,74.84,0,0,1,.06-7.93,6,6,0,0,1,6.5-5.65c3.33.16,6,1.57,6.48,5.23a61.74,61.74,0,0,1,0,16.63c-.52,3.78-3.21,5.31-6.83,5.17s-5.81-1.95-6.14-5.52C109.51,250.61,109.71,248,109.7,245.31Z"/><path d="M150.57,245.29c0-2.51-.16-5,0-7.54a6.63,6.63,0,0,1,13.1-.77,57.07,57.07,0,0,1,0,16.61c-.53,3.72-3.2,5.3-6.87,5.18a6,6,0,0,1-6.24-5.93C150.41,250.34,150.57,247.81,150.57,245.29Z"/><path d="M191.45,81.67c0-2.38-.15-4.78,0-7.15a6.41,6.41,0,0,1,6.81-6.31c3.62.05,6.38,2.33,6.57,6.12a133.09,133.09,0,0,1,0,15.08c-.24,3.83-3,5.89-6.75,5.84s-6.26-2.21-6.58-6c-.21-2.49,0-5,0-7.54Z"/><path d="M150.6,163.66c0-2.65-.2-5.31.05-7.94.33-3.53,2.54-5.43,6.07-5.64s6.23,1.11,6.85,4.65a50,50,0,0,1,0,17.76c-.62,3.38-3.43,4.69-6.58,4.57-3.36-.14-5.91-1.86-6.29-5.46a75.06,75.06,0,0,1-.05-7.94Z"/><path d="M150.58,40.8c0-2.51-.17-5,0-7.54a6.1,6.1,0,0,1,6.3-5.92c3.35,0,6.17,1.34,6.72,4.94a53.07,53.07,0,0,1,0,17.38c-.63,3.54-3.39,4.88-6.83,4.69s-5.76-2.08-6.1-5.6c-.26-2.63,0-5.3,0-7.94Z"/><path d="M109.35,40.86c.13-2.72.13-5.38.4-8,.37-3.66,2.89-5.23,6.23-5.53a6.08,6.08,0,0,1,6.76,5.35,58.94,58.94,0,0,1,0,16.62c-.52,3.57-3.07,5.1-6.53,5.07s-5.9-1.7-6.39-5.26C109.42,46.37,109.48,43.57,109.35,40.86Z"/><path d="M123.29,122.9c-.16,2.61-.12,5.28-.53,7.88a6,6,0,0,1-6.69,5.39c-3.58-.23-6.07-2-6.38-5.79a86.88,86.88,0,0,1,0-15.47c.36-3.69,2.73-5.7,6.36-5.71s6.21,1.54,6.7,5.35C123.13,117.3,123.13,120.09,123.29,122.9Z"/><path d="M123.31,286.26c-.18,2.83-.18,5.49-.55,8.1-.53,3.82-3.15,5.34-6.76,5.25s-5.88-1.79-6.24-5.39a76.76,76.76,0,0,1,0-16.25c.4-3.65,3-5.24,6.37-5.28s6,1.39,6.56,5.05C123.12,280.61,123.13,283.54,123.31,286.26Z"/><path d="M109.68,81.55a72.71,72.71,0,0,1,0-7.53c.38-3.66,2.8-5.7,6.36-5.79s6.2,1.87,6.68,5.44a63.43,63.43,0,0,1,0,16.23c-.48,3.82-3.1,5.34-6.72,5.32s-5.83-2-6.39-5.73a7.91,7.91,0,0,1-.14-1.18c0-2.25,0-4.5,0-6.75Z"/><path d="M81.89,204.47c0,2.65.19,5.32,0,7.94-.34,3.6-2.74,5.36-6.19,5.51s-6.15-1.29-6.72-4.86a53.13,53.13,0,0,1,0-17.39c.61-3.57,3.43-4.93,6.81-4.75s5.66,1.82,6,5.23a76.92,76.92,0,0,1,.06,8.32Z"/><path d="M81.94,122.7c0,2.52.13,5,0,7.54-.24,3.82-2.65,5.63-6.25,5.92s-6.29-1.69-6.81-5.25a58.07,58.07,0,0,1,0-16.6c.56-3.82,3.31-5.24,6.9-5.08s5.79,2,6.11,5.54c.22,2.62,0,5.29,0,7.93Z"/><path d="M81.92,286.34c0,2.52.19,5.05,0,7.54-.35,3.67-2.7,5.71-6.34,5.74s-6.25-1.51-6.74-5.31a65.78,65.78,0,0,1,0-16.23c.46-3.83,3.13-5.36,6.69-5.42s6.12,2.25,6.45,6.14c.2,2.5,0,5,0,7.54Z"/><path d="M81.91,327.33c0,2.51.2,5.05,0,7.54a6,6,0,0,1-6.42,5.7c-3.36-.08-6.06-1.44-6.57-5.08a58,58,0,0,1,0-17c.56-3.61,3.25-5,6.67-4.87s5.89,1.79,6.24,5.38a82.6,82.6,0,0,1,.06,8.33Z"/><path d="M81.88,81.87c0,2.64.21,5.31,0,7.93-.36,3.59-2.73,5.3-6.22,5.41S69.47,94,68.92,90.37A53.69,53.69,0,0,1,69,73c.63-3.61,3.5-4.85,6.84-4.67s5.65,1.81,6,5.23a82.61,82.61,0,0,1,0,8.33Z"/><path d="M314.41,231.78c-.16,2.73-.13,5.53-.55,8.26-.55,3.56-3,5.13-6.5,5.11s-5.95-1.66-6.41-5.23a64.73,64.73,0,0,1,0-16.63c.48-3.65,3.17-5.17,6.51-5.14s5.95,1.61,6.41,5.26C314.24,226.16,314.25,229,314.41,231.78Z"/><path d="M300.42,190.5c.16-2.72.16-5.38.53-8,.52-3.58,3-5.2,6.43-5.22s6,1.56,6.49,5.14a64.73,64.73,0,0,1,0,16.63c-.45,3.64-3.05,5.22-6.43,5.24s-6-1.53-6.49-5.16C300.58,196.27,300.58,193.34,300.42,190.5Z"/><path d="M314.41,149.76c-.16,2.77-.19,5.56-.5,8.31-.41,3.67-3,5.15-6.33,5.4a6.06,6.06,0,0,1-6.65-5.47,65.86,65.86,0,0,1,0-16.24c.43-3.59,2.83-5.22,6.33-5.32,3.7-.1,6.12,1.74,6.65,5.39C314.29,144.43,314.26,147.1,314.41,149.76Z"/><path d="M300.43,272.47c.15-2.7.12-5.36.49-8a6.07,6.07,0,0,1,6.63-5.49c3.34.21,5.93,1.68,6.36,5.35a70,70,0,0,1,0,16.24c-.44,3.8-3,5.43-6.64,5.39-3.48,0-5.89-1.66-6.35-5.26C300.58,278,300.59,275.2,300.43,272.47Z"/><path d="M300.44,313c.14-2.49.16-5,.44-7.5.42-3.82,2.9-5.54,6.52-5.54s6.15,1.69,6.56,5.51a75.56,75.56,0,0,1,0,15.84c-.39,3.83-2.93,5.55-6.53,5.55s-6.14-1.69-6.54-5.52C300.6,318.61,300.58,315.83,300.44,313Z"/><path d="M232.22,231.76c0,2.38.14,4.78,0,7.15-.28,3.88-2.67,6.12-6.39,6.25s-6.64-1.85-6.9-5.66a116.74,116.74,0,0,1,0-15.87c.24-3.49,3.25-5.61,6.66-5.56a6.38,6.38,0,0,1,6.57,6.14c.19,2.5,0,5,0,7.55Z"/><path d="M232.22,190.49c0,2.51.14,5,0,7.55a6.34,6.34,0,0,1-6.39,6.31c-3.56.16-6.68-2.06-6.91-5.72a115.13,115.13,0,0,1,.06-15.87c.28-3.75,3.3-5.72,7-5.48a6.17,6.17,0,0,1,6.18,6.05c.19,2.37,0,4.77,0,7.16Z"/><path d="M232.21,272.43c0,2.52.15,5.05,0,7.55a6.05,6.05,0,0,1-6.16,6c-3.88.22-6.77-1.62-7.06-5.4a111.93,111.93,0,0,1,0-15.86c.23-3.71,3.3-5.9,6.88-5.74a6.36,6.36,0,0,1,6.41,6.29C232.35,267.65,232.22,270.05,232.21,272.43Z"/><path d="M273.1,190.82c0,2.52.17,5.05,0,7.55a6.17,6.17,0,0,1-6.24,6c-3.44.18-6.32-1.79-6.83-5.3a57,57,0,0,1,0-16.6c.56-3.76,3.27-5.28,6.89-5.16s5.76,2.3,6.22,6c0,.39.09.79.1,1.18,0,2.12,0,4.24,0,6.36Z"/><path d="M273.11,149.82c0,2.51.17,5,0,7.54-.31,3.8-2.88,6.23-6.52,6.11s-6.23-1.74-6.65-5.55a64.82,64.82,0,0,1,0-16.23c.53-3.76,3.14-5.33,6.8-5.24s6,2.17,6.29,5.82c.22,2.5,0,5,0,7.55Z"/><path d="M232.19,149.91c0,2.52.17,5.05,0,7.55a6.31,6.31,0,0,1-6.25,6c-3.38.22-6.46-1.81-6.91-5.26a63.49,63.49,0,0,1,0-16.64c.49-3.68,3.21-5.29,6.9-5.15a6.07,6.07,0,0,1,6.27,5.92C232.36,144.86,232.2,147.39,232.19,149.91Z"/><path d="M273.11,231.6c0,2.52.16,5,0,7.54-.3,3.74-2.57,5.87-6.15,6s-6.36-1.36-6.91-5.11a55.69,55.69,0,0,1,.06-17c.58-3.6,3.38-5,6.72-4.88s5.89,1.88,6.21,5.51c.24,2.63.05,5.29.05,7.94Z"/><path d="M273.13,272.66c0,2.38.11,4.77,0,7.15-.2,3.71-2.22,5.84-6,6.16-3.95.33-6.61-1.39-7.16-5.23a55,55,0,0,1,0-16.6A6,6,0,0,1,267,259c3.39.37,5.8,2.06,6.07,5.68.2,2.63,0,5.29,0,7.94Z"/><path d="M232.24,313.23c0,2.38.11,4.77,0,7.15-.23,4.08-2.67,6.46-6.51,6.56s-6.57-2-6.82-5.77a114.09,114.09,0,0,1,0-15.47c.27-4,3.22-6,7.21-5.71,3.69.26,5.9,2.52,6.13,6.49C232.35,308.72,232.24,311,232.24,313.23Z"/><path d="M273.12,313.64c0,2.39.11,4.78,0,7.15-.21,3.75-2.38,5.76-6.06,6.09s-6.55-1.54-7.09-5.35a58.36,58.36,0,0,1,0-16.22c.54-3.82,3.25-5.64,7.11-5.31,3.71.32,5.83,2.36,6,6.1C273.23,308.61,273.13,311.13,273.12,313.64Z"/></g></g></svg>