<svg width="27" height="21" viewBox="0 0 27 21" fill="none" xmlns="http://www.w3.org/2000/svg">
<path fill-rule="evenodd" clip-rule="evenodd" d="M16.7609 0C17.089 0 17.3993 0.152625 17.6043 0.41481L19.872 3.31578H23.76C25.5494 3.31578 27 4.80031 27 6.63157V17.6842C27 19.5154 25.5494 21 23.76 21H3.24C1.4506 21 0 19.5154 0 17.6842V6.63157C0 4.80031 1.4506 3.31578 3.24 3.31578H7.12692L9.39574 0.41481C9.60069 0.152625 9.91099 0 10.2391 0H16.7609ZM13.5005 5.52647C10.0708 5.52647 7.29053 8.37181 7.29053 11.8817C7.29053 15.3916 10.0708 18.237 13.5005 18.237C16.9302 18.237 19.7105 15.3916 19.7105 11.8817C19.7105 8.37181 16.9302 5.52647 13.5005 5.52647ZM13.4989 7.18447C16.0339 7.18447 18.0889 9.28755 18.0889 11.8818C18.0889 14.4761 16.0339 16.5792 13.4989 16.5792C10.9639 16.5792 8.90893 14.4761 8.90893 11.8818C8.90893 9.28755 10.9639 7.18447 13.4989 7.18447ZM21.06 5.24988C20.6126 5.24988 20.25 5.62101 20.25 6.07883C20.25 6.53664 20.6126 6.90777 21.06 6.90777C21.5074 6.90777 21.87 6.53664 21.87 6.07883C21.87 5.62101 21.5074 5.24988 21.06 5.24988ZM4.85998 1.10483C5.15822 1.10483 5.39998 1.35225 5.39998 1.65746V2.21009H3.23998V1.65746C3.23998 1.35225 3.48175 1.10483 3.77998 1.10483H4.85998Z" fill="#717171"/>
</svg>
