<svg xmlns="http://www.w3.org/2000/svg" viewBox="0 0 369.6 353.35"><defs><style>.cls-1{fill:#fefefe;}</style></defs><g id="Слой_2" data-name="Слой 2"><g id="Слой_1-2" data-name="Слой 1"><path d="M35.22,109.7c-7,2.33-13.61,4.51-20.18,6.67C10,118,8,117,6.3,112.05,4.44,106.66,2.63,101.27.82,95.87S0,88.38,5.37,86.59Q42.15,74.26,78.94,62L260.63,1.08c6.51-2.18,8.2-1.35,10.41,5.24,1.74,5.16,3.5,10.32,5.18,15.49,1.52,4.64.39,6.93-4.28,8.55-5.38,1.86-10.77,3.69-16.22,5.37-2,.63-2.91,1.48-2.9,3.82q.12,61.11,0,122.22c0,3.08,1.18,3.33,3.7,3.32q52.35-.09,104.71,0c7.18,0,8.38,1.22,8.38,8.47V345.29c0,6.75-1.3,8.06-8,8.06H43c-6.46,0-7.79-1.34-7.79-7.9V109.7Z"/><path class="cls-1" d="M242.39,40.4v9.06c0,37.27,0,74.54.07,111.8,0,3.1-.73,4.23-3.86,3.83s-7.39,1.34-9.22-.75c-1.57-1.79-.57-5.9-.57-9q0-30.56,0-61.11c0-5.56-1.53-7.12-7-7.12q-23.12,0-46.22,0c-5,0-6.64,1.61-6.64,6.69,0,22.49-.08,45,.06,67.45,0,3.14-.88,4.16-3.92,3.83a51.78,51.78,0,0,0-6.71,0c-4.74.11-6.44,1.84-6.44,6.63q0,33,0,66c0,33.78-.06,67.57.1,101.36,0,3.4-.95,4-4.08,3.94q-49.38-.18-98.76,0c-2.68,0-3.55-.48-3.54-3.39q.14-115.15,0-230.31c0-2,.24-3.3,2.57-4.08q95.64-31.9,191.23-64C240.32,40.93,241.16,40.74,242.39,40.4Z"/><path class="cls-1" d="M260.81,175.58c31.42,0,62.85,0,94.27-.06,3,0,4.17.38,4.16,3.9q-.21,79.92,0,159.84c0,2.77-.47,3.88-3.55,3.71A138.31,138.31,0,0,0,340,343c-3.13.18-3.53-1-3.53-3.73q.13-51.42.06-102.84c0-7.54-1-8.57-8.62-8.57H263.83c-7.24,0-8.29,1.07-8.29,8.46,0,34.27,0,68.55.08,102.83,0,3.05-.64,3.87-3.79,3.85q-43-.21-86.07,0c-2.8,0-3.43-.67-3.43-3.44q.13-80.29,0-160.58c0-2.83.71-3.44,3.46-3.43C197.47,175.62,229.14,175.58,260.81,175.58Z"/><path class="cls-1" d="M266,290.29c0-16.26.07-32.53-.06-48.79,0-2.6.64-3.26,3.25-3.24q26.82.19,53.64,0c2.66,0,3.27.79,3.26,3.34q-.12,49,0,98c0,2.92-.88,3.41-3.55,3.39q-26.62-.18-53.27,0c-2.92,0-3.37-.87-3.35-3.51C266.06,323.07,266,306.68,266,290.29Z"/><path class="cls-1" d="M264.85,21c-.24,1.36-1.67,1.25-2.72,1.6q-24.09,8.1-48.2,16.18-97.53,32.7-195,65.46c-3.39,1.15-4.33.38-5.22-2.8-1.66-5.91-1.89-5.86,3.83-7.78Q137.91,53.26,258.29,12.84c2.93-1,4.16-.44,4.75,2.5A49.4,49.4,0,0,0,264.85,21Z"/><path class="cls-1" d="M179.42,131.19c0-10.18.07-20.35,0-30.53,0-2.28.37-3.18,3-3.14,11,.16,22.09.12,33.13,0,2.19,0,2.94.39,2.93,2.8q-.17,30.9,0,61.8c0,2.59-.86,3-3.15,3-10.79-.11-21.59-.14-32.39,0-2.68,0-3.58-.48-3.52-3.39C179.55,151.55,179.42,141.37,179.42,131.19Z"/><path d="M131.84,218q0,40.41,0,80.84c0,6.32-1.37,7.75-7.52,7.75q-22.54,0-45.08,0c-5.9,0-7.3-1.38-7.3-7.21q0-81.39,0-162.79c0-5.83,1.4-7.2,7.31-7.21q22.55,0,45.08,0c6,0,7.51,1.48,7.51,7.41Q131.85,177.39,131.84,218Z"/><path d="M207.25,256.54c-7,0-13.91,0-20.87,0-4.58,0-6.27-1.69-6.28-6.3q-.07-21.06,0-42.11c0-4.66,1.62-6.39,6.22-6.42q21.24-.1,42.47,0c4.41,0,6.09,1.77,6.11,6.16q.07,21.24,0,42.48c0,4.56-1.74,6.16-6.41,6.19C221.41,256.57,214.33,256.54,207.25,256.54Z"/><path class="cls-1" d="M101.62,212.75c-5.58,0-11.17-.08-16.76,0-2,.05-2.5-.62-2.49-2.54q.13-16.2,0-32.4c0-1.8.57-2.31,2.34-2.3q17.31.09,34.63,0c1.68,0,2.06.6,2.06,2.15-.06,10.93-.11,21.85,0,32.78,0,2.29-1,2.3-2.68,2.29C113.05,212.72,107.34,212.75,101.62,212.75Z"/><path class="cls-1" d="M102,254.07c-5.71,0-11.42-.08-17.12.05-2,0-2.53-.61-2.51-2.54q.12-13,0-26.06c0-1.74.51-2.38,2.32-2.37q17.33.1,34.63,0c1.66,0,2.09.61,2.08,2.18-.06,8.81-.1,17.62,0,26.43,0,2.17-.92,2.36-2.66,2.33C113.18,254,107.6,254.07,102,254.07Z"/><path class="cls-1" d="M101.64,296.09c-5.58,0-11.16-.07-16.73,0-1.9,0-2.57-.43-2.54-2.45q.16-13.38,0-26.76c0-2,.62-2.47,2.52-2.45q17.1.12,34.2,0c1.73,0,2.35.4,2.33,2.25q-.14,13.56,0,27.13c0,1.81-.54,2.31-2.31,2.28C113.29,296,107.46,296.09,101.64,296.09Z"/><path class="cls-1" d="M102,139.88c5.7,0,11.41.06,17.11,0,1.72,0,2.39.35,2.35,2.25q-.17,10.41,0,20.83c0,2-.83,2.16-2.43,2.15-11.41,0-22.82-.08-34.23,0-2.12,0-2.4-.85-2.38-2.64.08-6.57.13-13.14,0-19.71,0-2.25.5-3,2.86-2.92C90.79,140,96.38,139.88,102,139.88Z"/><path class="cls-1" d="M207.85,212.18c4.72,0,9.45.1,14.16-.05,2-.06,2.48.66,2.46,2.54q-.12,14.54,0,29.07c0,1.71-.36,2.38-2.24,2.36q-14.72-.14-29.44,0c-1.83,0-2.28-.58-2.26-2.33.07-9.69.11-19.38,0-29.07,0-2.28.85-2.61,2.81-2.56C198.16,212.26,203,212.18,207.85,212.18Z"/></g></g></svg>