<svg width="28" height="28" viewBox="0 0 28 28" fill="none" xmlns="http://www.w3.org/2000/svg">
<g clip-path="url(#clip0_541_1095)">
<path d="M27.7415 12.696L14.5649 0.913136C14.5419 0.8901 14.5189 0.872823 14.4901 0.855546C14.2021 0.579115 13.7414 0.567597 13.4362 0.838269L0.259592 12.6212C-0.0629121 12.9091 -0.0859481 13.3986 0.196243 13.7211C0.351736 13.8939 0.564818 13.9803 0.777901 13.9803C0.962189 13.9803 1.14648 13.9169 1.29621 13.7845L3.66892 11.6594V12.0741V18.2247V25.4004C3.66892 26.4773 4.54428 27.3584 5.62698 27.3584C5.64425 27.3584 5.65577 27.3584 5.67305 27.3584C5.69032 27.3584 5.70184 27.3584 5.71912 27.3584H9.78497C10.7986 27.3584 11.6221 26.5349 11.6221 25.5213V18.5357C11.6221 18.3802 11.7488 18.2535 11.9043 18.2535H16.1026C16.2581 18.2535 16.3848 18.3802 16.3848 18.5357V25.5213C16.3848 26.5349 17.2083 27.3584 18.2219 27.3584H22.3799C23.4741 27.3584 24.3379 26.2815 24.3379 24.9051V18.5011V16.543V11.7343L26.7107 13.8594C26.8604 13.9918 27.0447 14.0552 27.229 14.0552C27.442 14.0552 27.6551 13.9688 27.8106 13.796C28.0871 13.4735 28.0583 12.984 27.7415 12.696ZM22.7773 16.5373V18.4953V24.8936C22.7773 25.4522 22.5008 25.792 22.3741 25.792H18.2161C18.0606 25.792 17.9339 25.6653 17.9339 25.5098V18.5357C17.9339 17.5221 17.1104 16.6985 16.0968 16.6985H11.8985C10.8849 16.6985 10.0614 17.5221 10.0614 18.5357V25.5213C10.0614 25.6768 9.9347 25.8035 9.77921 25.8035H5.71336C5.69608 25.8035 5.68457 25.8035 5.66729 25.8035C5.65001 25.8035 5.63849 25.8035 5.62122 25.8035C5.40237 25.8035 5.21809 25.625 5.21809 25.4004V18.2189V12.0683V10.2657L13.9602 2.45655L22.7773 10.3406V16.5373Z" fill="#717171"/>
</g>
<defs>
<clipPath id="clip0_541_1095">
<rect width="28" height="28" fill="white"/>
</clipPath>
</defs>
</svg>
