<svg width="25" height="28" viewBox="0 0 25 28" fill="none" xmlns="http://www.w3.org/2000/svg">
<g clip-path="url(#clip0_541_1099)">
<path d="M4.04243 20.1468H4.58143H9.49436H10.0334C10.3081 20.1468 10.5309 19.8973 10.5309 19.5896C10.5309 19.2819 10.3081 19.0324 10.0334 19.0324H9.99188V12.8508C9.99188 12.5431 9.76911 12.2936 9.49436 12.2936H4.58143C4.30668 12.2936 4.08391 12.5431 4.08391 12.8508V19.0324H4.04243C3.76768 19.0324 3.54492 19.2819 3.54492 19.5896C3.54492 19.8973 3.76768 20.1468 4.04243 20.1468ZM8.99685 13.408V15.663H5.07894V13.408H8.99685ZM5.07894 16.7774H8.99685V19.0324H5.07894V16.7774Z" fill="#717171"/>
<path d="M14.3855 19.1958C14.2928 19.092 14.1647 19.0321 14.0341 19.0321C13.9029 19.0321 13.7748 19.092 13.6821 19.1958C13.5895 19.2996 13.5366 19.443 13.5366 19.5893C13.5366 19.7363 13.5895 19.8798 13.6821 19.9835C13.7748 20.0873 13.9029 20.1465 14.0341 20.1465C14.1647 20.1465 14.2928 20.0873 14.3855 19.9835C14.4782 19.8798 14.5316 19.7363 14.5316 19.5893C14.5316 19.4431 14.4782 19.2996 14.3855 19.1958Z" fill="#717171"/>
<path d="M24.5025 25.7132H23.9428V11.0046L24.2177 11.1587C24.2879 11.198 24.3642 11.2176 24.4403 11.2176C24.5312 11.2176 24.622 11.1897 24.7018 11.1344C24.8485 11.0329 24.9378 10.8535 24.9378 10.6604V8.42212C24.9378 8.21114 24.8314 8.01821 24.6629 7.92383L22.4295 6.67198V2.28113C22.4295 1.97341 22.2068 1.72392 21.932 1.72392H18.4857C18.2109 1.72392 17.9882 1.97341 17.9882 2.28113V4.18269L12.7226 1.23141C12.5825 1.15284 12.4175 1.15284 12.2774 1.23141L0.337065 7.92376C0.168595 8.01821 0.0621891 8.21107 0.0621891 8.42212V10.6604C0.0621891 10.8535 0.151493 11.0329 0.298197 11.1344C0.4449 11.236 0.628109 11.2451 0.782338 11.1587L1.05721 11.0047V25.7132H0.497512C0.222761 25.7132 0 25.9627 0 26.2704C0 26.5782 0.222761 26.8277 0.497512 26.8277H24.5025C24.7772 26.8277 25 26.5782 25 26.2704C25 25.9627 24.7772 25.7132 24.5025 25.7132ZM12.9975 13.408H18.4701V25.7132H12.9975V13.408ZM19.4652 22.3408H22.9478V25.7132H19.4652V22.3408ZM18.9832 2.83835H21.4345V6.11428L18.9832 4.7404V2.83835ZM1.05721 8.76634L12.5 2.3528L23.9428 8.76634V9.75839L12.7226 3.46967C12.5825 3.3911 12.4175 3.3911 12.2774 3.46967L1.05721 9.75839V8.76634ZM12.5 4.59106L22.9478 10.4469V21.2264H19.4652V12.8508C19.4652 12.5431 19.2424 12.2936 18.9677 12.2936H12.5C12.2252 12.2936 12.0025 12.5431 12.0025 12.8508V21.2264H2.05224V10.4468L12.5 4.59106ZM2.05224 22.3408H12.0025V25.7132H2.05224V22.3408Z" fill="#717171"/>
</g>
<defs>
<clipPath id="clip0_541_1099">
<rect width="25" height="28" fill="white"/>
</clipPath>
</defs>
</svg>
