<svg xmlns="http://www.w3.org/2000/svg" viewBox="0 0 311.29 311.31"><defs><style>.cls-1{fill:#fefefe;}</style></defs><g id="Слой_2" data-name="Слой 2"><g id="Слой_1-2" data-name="Слой 1"><path d="M155.45,311.28h-141a18.65,18.65,0,0,1-5.56-.44,11.94,11.94,0,0,1,2.77-23.46c3.37-.12,6.74-.13,10.1,0,1.81.07,2.51-.48,2.27-2.29a20.65,20.65,0,0,1,0-2.61V14.6C24,4.35,28.28,0,38.44,0H177.23c9.92,0,14.35,4.44,14.35,14.36s.11,20-.06,29.93c-.05,2.83.57,3.69,3.58,3.68,25.69-.14,51.38.2,77.07-.22,9.7-.16,15.37,5.22,15.33,15.52-.26,73.33-.11,146.66-.23,220,0,3.48.94,4.48,4.26,4.14a56.37,56.37,0,0,1,8.22,0,11.94,11.94,0,0,1,.11,23.86c-3.36.16-6.73,0-10.1,0Z"/><path class="cls-1" d="M47.92,155.26q0-63.78-.08-127.57c0-3.11.72-3.83,3.83-3.82q56.11.18,112.23,0c3.12,0,3.82.75,3.82,3.84q-.15,110.55-.07,221.1a27,27,0,0,0,.2,4.85,12,12,0,0,0,23.7-1.67c.08-1.25,0-2.5,0-3.74q0-86.24-.08-172.47c0-3.28.74-4,4-4,21.57.17,43.15.14,64.72,0,2.64,0,3.24.65,3.24,3.26q-.12,104.57,0,209.13c0,2.64-.65,3.24-3.26,3.24q-56.67-.15-113.36,0c-2.65,0-3.27-.67-3.23-3.27.16-10.47.09-20.95.06-31.42,0-8.4-4.84-13.25-13.2-13.26q-22.82,0-45.64,0c-8.13,0-13,4.89-13,13.08,0,10.6-.09,21.2,0,31.8,0,2.42-.58,3.14-3,3.06-5.85-.19-11.73-.23-17.58,0-2.81.11-3.45-.66-3.44-3.45Q48,219.61,47.92,155.26Z"/><path class="cls-1" d="M107.41,287.16c-3.8-.2-8.9,1.87-11.06-.58-1.87-2.14-.62-7.12-.51-10.84.12-4.06-1.79-9.5.76-11.78,2.23-2,7.58-.63,11.55-.54,3.81.09,8.91-1.66,11,.73,1.88,2.1.62,7.11.52,10.83-.12,4.06,1.78,9.52-.76,11.77C116.74,288.73,111.38,287.16,107.41,287.16Z"/><path d="M83.83,71.67c-3.85,0-9,1.51-11.19-.4-2.46-2.19-.65-7.48-.74-11.41s-1.42-9,.52-11.19c2.21-2.46,7.48-.65,11.42-.75s9-1.41,11.19.53c2.46,2.21.65,7.48.74,11.41s1.41,9-.52,11.2C93,73.6,87.76,71.4,83.83,71.67Z"/><path d="M131.54,71.83c-3.24,0-6.48-.08-9.72,0-1.63.06-2.13-.44-2.11-2.09q.14-9.91,0-19.82c0-1.63.44-2.13,2.09-2.11q9.9.13,19.82,0c1.63,0,2.12.44,2.1,2.1q-.14,9.9,0,19.82c0,1.63-.43,2.16-2.09,2.1C138.28,71.75,134.91,71.83,131.54,71.83Z"/><path d="M72,107.39c.19-3.81-1.87-8.91.58-11.06,2.12-1.87,7.11-.62,10.83-.52,4.06.12,9.5-1.78,11.78.75,2,2.23.63,7.58.54,11.55-.08,3.81,1.67,8.91-.73,11.06-2.08,1.88-7.1.62-10.82.52-4.06-.12-9.51,1.78-11.77-.76C70.47,116.72,72,111.36,72,107.39Z"/><path d="M143.52,108.11c-.19,3.81,1.87,8.91-.58,11.06-2.12,1.87-7.11.62-10.83.52-4.06-.12-9.5,1.78-11.78-.75-2-2.23-.63-7.58-.55-11.55.09-3.81-1.66-8.91.73-11.06,2.09-1.88,7.11-.62,10.83-.52,4.06.12,9.51-1.78,11.77.76C145.08,98.78,143.52,104.14,143.52,108.11Z"/><path d="M227.85,96c3.81.18,8.9-1.87,11.06.57,1.88,2.11.63,7.11.53,10.82-.11,4.06,1.78,9.5-.75,11.79-2.21,2-7.57.63-11.54.55-3.81-.08-8.91,1.66-11.06-.72-1.88-2.08-.63-7.11-.53-10.82.11-4.06-1.78-9.52.75-11.78C218.51,94.4,223.88,96,227.85,96Z"/><path d="M95.81,155.84c0,3.24-.09,6.48,0,9.72.07,1.66-.48,2.11-2.11,2.09q-9.9-.14-19.82,0c-1.65,0-2.1-.49-2.08-2.11q.12-9.91,0-19.82c0-1.66.48-2.11,2.1-2.09q9.91.13,19.82,0c1.66,0,2.15.48,2.09,2.11C95.73,149.1,95.81,152.47,95.81,155.84Z"/><path d="M132,167.61c-3.25,0-6.49-.07-9.73,0-1.75.05-2.66-.16-2.61-2.35.17-6.48.13-13,0-19.44,0-1.91.67-2.24,2.36-2.22,6.48.09,13,.11,19.45,0,1.9,0,2.23.67,2.21,2.37-.09,6.48-.11,13,0,19.44,0,1.91-.67,2.28-2.37,2.21C138.26,167.53,135.14,167.61,132,167.61Z"/><path d="M227.85,143.85c3.81.18,8.9-1.87,11.06.56,1.88,2.12.63,7.11.53,10.83-.11,4.06,1.78,9.5-.75,11.78-2.21,2-7.57.64-11.54.56-3.81-.08-8.91,1.66-11.06-.72-1.88-2.08-.63-7.11-.53-10.82.11-4.07-1.78-9.52.75-11.78C218.51,142.29,223.88,143.85,227.85,143.85Z"/><path d="M95.63,203.89c-.19,3.8,1.87,8.9-.58,11.06-2.12,1.87-7.11.62-10.83.52-4.06-.12-9.5,1.78-11.78-.76-2-2.22-.63-7.58-.55-11.54s-1.66-8.92.73-11.06c2.09-1.88,7.11-.62,10.83-.52,4.06.11,9.51-1.78,11.77.75C97.19,194.56,95.63,199.92,95.63,203.89Z"/><path d="M119.93,203.17c.18-3.81-1.87-8.9.57-11.06,2.12-1.87,7.12-.62,10.83-.52,4.06.11,9.5-1.78,11.78.75,2,2.22.64,7.58.55,11.55-.08,3.81,1.66,8.91-.72,11.05-2.09,1.88-7.11.63-10.83.53-4.06-.12-9.51,1.78-11.77-.76C118.37,212.5,119.93,207.14,119.93,203.17Z"/><path d="M215.71,203.18c.18-3.81-1.87-8.91.57-11.07,2.11-1.87,7.11-.62,10.82-.52,4.07.11,9.5-1.78,11.79.75,2,2.21.63,7.57.55,11.54-.08,3.81,1.66,8.91-.72,11.06-2.08,1.88-7.11.63-10.82.53-4.06-.11-9.52,1.77-11.78-.75C214.15,212.52,215.71,207.15,215.71,203.18Z"/><path d="M227.51,239.62c3.85,0,9.05-1.52,11.19.4,2.45,2.19.65,7.47.74,11.41s1.41,9-.53,11.18c-2.21,2.46-7.48.65-11.42.75s-9,1.4-11.19-.54c-2.45-2.21-.64-7.48-.74-11.42s-1.4-9,.53-11.18C218.31,237.75,223.58,239.76,227.51,239.62Z"/></g></g></svg>