<svg width="9" height="7" viewBox="0 0 9 7" fill="none" xmlns="http://www.w3.org/2000/svg">
<path fill-rule="evenodd" clip-rule="evenodd" d="M5.58698 0C5.69634 0 5.79977 0.0497123 5.86809 0.13511L6.624 1.08H7.92C8.51647 1.08 9 1.56353 9 2.16V5.76C9 6.35647 8.51647 6.84 7.92 6.84H1.08C0.483532 6.84 0 6.35647 0 5.76V2.16C0 1.56353 0.483532 1.08 1.08 1.08H2.37564L3.13191 0.13511C3.20023 0.0497123 3.30366 0 3.41303 0H5.58698ZM4.49999 1.80002C3.35676 1.80002 2.42999 2.72679 2.42999 3.87002C2.42999 5.01325 3.35676 5.94002 4.49999 5.94002C5.64322 5.94002 6.56999 5.01325 6.56999 3.87002C6.56999 2.72679 5.64322 1.80002 4.49999 1.80002ZM4.49997 2.34C5.34497 2.34 6.02997 3.025 6.02997 3.87C6.02997 4.71499 5.34497 5.4 4.49997 5.4C3.65497 5.4 2.96997 4.71499 2.96997 3.87C2.96997 3.025 3.65497 2.34 4.49997 2.34ZM7.02 1.71002C6.87088 1.71002 6.75 1.83091 6.75 1.98002C6.75 2.12914 6.87088 2.25002 7.02 2.25002C7.16912 2.25002 7.29 2.12914 7.29 1.98002C7.29 1.83091 7.16912 1.71002 7.02 1.71002ZM1.61996 0.359985C1.71937 0.359985 1.79996 0.440574 1.79996 0.539985V0.719985H1.07996V0.539985C1.07996 0.440574 1.16054 0.359985 1.25996 0.359985H1.61996Z" fill="#00A3FF"/>
</svg>
