<svg width="24" height="24" viewBox="0 0 24 24" fill="none" xmlns="http://www.w3.org/2000/svg">
<path fill-rule="evenodd" clip-rule="evenodd" d="M10 5C10 3.89543 10.8954 3 12 3C13.1046 3 14 3.89543 14 5V5.34141C16.3304 6.16508 18 8.38756 18 11V16H19C19.5523 16 20 16.4477 20 17C20 17.5523 19.5523 18 19 18H5C4.44772 18 4 17.5523 4 17C4 16.4477 4.44772 16 5 16H6V11C6 8.38756 7.66962 6.16508 10 5.34141V5ZM10 19C10 20.1046 10.8954 21 12 21C13.1046 21 14 20.1046 14 19H10ZM12 7C14.2091 7 16 8.79086 16 11V16H8V11C8 8.79086 9.79086 7 12 7Z" fill="black"/>
</svg>
